<svg width="32" height="32" viewBox="0 0 32 32" fill="none" xmlns="http://www.w3.org/2000/svg">
<path d="M23.5833 12.5833H22.695L20.8533 7.51325C20.7009 7.0952 20.4239 6.73396 20.0597 6.47825C19.6955 6.22255 19.2617 6.08468 18.8167 6.08325H17.0833C16.4875 6.08325 16 6.57075 16 7.16659C16 7.76242 16.4875 8.24992 17.0833 8.24992H18.8167L20.3983 12.5833H15.1875L14.7975 11.4999H14.895C15.4908 11.4999 15.9783 11.0124 15.9783 10.4166C15.9783 9.82075 15.4908 9.33325 14.895 9.33325H11.6667C11.0708 9.33325 10.5833 9.82075 10.5833 10.4166C10.5833 11.0124 11.0708 11.4999 11.6667 11.4999H12.4792L14.4508 16.9166H13.725C13.2483 14.5008 11.2225 12.7133 8.6875 12.5941C5.65417 12.4424 3 14.9666 3 17.9999C3 21.0333 5.38333 23.4166 8.41667 23.4166C11.0817 23.4166 13.2375 21.5858 13.725 19.0833H18.275C18.7517 21.4991 20.7775 23.2866 23.3125 23.4058C26.3458 23.5466 29 21.0333 29 17.9891C29 14.9666 26.6167 12.5833 23.5833 12.5833ZM9.5 19.0833H11.4717C11.0167 20.4158 9.73833 21.3366 8.2 21.2391C6.58583 21.1416 5.2425 19.7766 5.16667 18.1516C5.09083 16.2558 6.5425 14.7499 8.41667 14.7499C9.8575 14.7499 11.0383 15.6491 11.4717 16.9166H9.5C8.90417 16.9166 8.41667 17.4041 8.41667 17.9999C8.41667 18.5958 8.90417 19.0833 9.5 19.0833ZM18.275 16.9166H16.7583L15.9675 14.7499H19.25C18.7733 15.3783 18.4267 16.1041 18.275 16.9166ZM23.4533 21.2499C21.785 21.1849 20.3767 19.7658 20.3333 18.0866C20.3117 17.0466 20.7558 16.1366 21.4708 15.5299L22.1425 17.3716C22.3483 17.9349 22.9658 18.2274 23.5292 18.0216C24.0925 17.8158 24.385 17.1983 24.1792 16.6349L23.4967 14.7608L23.5075 14.7499C23.9418 14.7351 24.3747 14.8085 24.7799 14.9656C25.1851 15.1227 25.5543 15.3603 25.8651 15.664C26.1759 15.9678 26.422 16.3314 26.5884 16.7328C26.7548 17.1343 26.8381 17.5653 26.8333 17.9999C26.8333 19.8633 25.3383 21.3149 23.4533 21.2499Z" fill="url(#paint0_linear_1_1013)"/>
<defs>
<linearGradient id="paint0_linear_1_1013" x1="15.7604" y1="5.57345" x2="15.2186" y2="21.4905" gradientUnits="userSpaceOnUse">
<stop stop-color="#FFB60D"/>
<stop offset="1" stop-color="#E59317"/>
</linearGradient>
</defs>
</svg>
